<svg width="64" height="64" fill="none" xmlns="http://www.w3.org/2000/svg"><g clip-path="url(#a)"><path d="M53.26 4.077c.684 0 1.129.736 1.368 1.95 1.164 5.87.6 13.192-1.59 16.323-.257.377-.583.685-.925.958.154.377.308.753.445 1.147.394.24.719.547.992.924.736 1.06.822 2.497.326 3.678.068.342.136.684.222 1.027h.086c1.59 0 3.199 1.026 3.746 2.532.668 1.865-.376 4.175-2.224 4.91 2.498.086 4.449 2.96 3.627 5.321-.53 1.489-2.036 2.43-3.593 2.55.069 1.522.103 3.08.137 4.67 2.122 1.763 3.542 6.485.206 9.188 2.43.051 4.653 2.19 4.773 4.637.12 2.43-1.865 4.79-4.277 5.081 2.446.445 4.534 2.498 4.996 4.962.462 2.447-.736 5.116-2.875 6.416.274-.086.565-.137.839-.137 2.087 0 4.02 2.276 3.661 4.431-.257 1.506-1.386 2.704-2.789 3.32a4.896 4.896 0 0 0 2.943 1.01c.188 0 .394-.018.582-.035a90.852 90.852 0 0 1 11.155-.684h.428c5.903.034 11.155.29 15.809.77 1.078-1.267 2.635-2.122 4.311-2.19h.223c2.361 0 4.637 1.573 5.56 3.73l.719.153c.975-1.625 2.874-2.686 4.774-2.686.308 0 .633.034.941.086 2.498.479 4.448 2.925 4.38 5.457.718-.89 1.813-1.283 2.942-1.283 1.557 0 3.166.77 3.987 2.122.753 1.232.872 2.72.53 4.123 1.882 1.626 3.371 3.388 4.534 5.287.36-.034.736-.051 1.095-.051 3.542 0 6.656 1.522 5.698 5.766.855-.924 2.138-1.403 3.404-1.403 1.027 0 2.054.325 2.858.975 1.779 1.454 2.19 4.346.855 6.228.171-.017.325-.035.479-.035 2.259 0 4.397 1.968 4.483 4.226.085 2.362-2.07 4.569-4.431 4.569h-.206c1.591.445 1.643 2.515 1.129 4.106-1.249 3.935-4.67 4.654-7.168 4.654-1.455 0-2.618-.24-2.841-.24-.034 0-.051 0-.034.017 2.036 3.234 2.053 7.665-.41 10.711 3.627 3.849 1.3 10.881-4.055 12.25 1.232 3.593.085 7.477-1.078 11.087-1.061 3.302-2.105 6.604-3.165 9.906.119.445.222.907.342 1.352.581 2.275 1.163 4.654.718 6.963-.462 2.344-2.155 4.192-4.482 4.723.684 1.591.667 4.277-.223 6.21.206.565.342 1.164.342 1.797v.085c0 2.858-2.344 5.202-5.201 5.202h-1.574c-2.857 0-5.201-2.344-5.201-5.202v-.085c0-.975.291-1.865.753-2.635-1.181-.103-2.242-.992-2.926-2.036a7.643 7.643 0 0 1-.907-1.968c-.308.154-.633.24-.941.24-.308 0-.616-.086-.872-.291.051 1.129-.479 2.224-1.284 2.926.514.872.77 1.916.685 2.994v.085c-.206 2.704-2.498 4.791-5.184 4.791-.137 0-.274 0-.411-.017l-1.574-.12c-2.84-.222-4.996-2.737-4.773-5.578v-.085c.017-.325.085-.633.17-.941a3.672 3.672 0 0 1-.65-.616c-.359.205-.77.308-1.197.308-1.01 0-2.02-.582-2.481-1.54-.633-1.369-.017-3.216 1.3-3.85-1.677-.256-3.165-1.625-3.627-3.353-.462-1.728.103-3.73 1.403-4.893-1.523-.65-2.686-2.224-2.909-3.952-.205-1.506.325-3.063 1.3-4.158-.068-.274-.136-.565-.205-.838-2.087-1.198-3.524-3.645-3.524-6.177 0-1.317.445-2.498.958-3.661-.513-.496-.975-1.044-1.317-1.677-.377.017-.77.034-1.147.068-.599 1.472-1.762 2.704-3.216 3.32-.719.308-1.506.444-2.293.444-1.471 0-2.943-.53-4.055-1.505-.804.291-1.677.428-2.6.428-2.704 0-5.784-1.13-8.367-2.892-.684-.051-1.352-.12-2.036-.171.188.975.958 7.477.753 8.811-.308 2.002-1.403 3.833-1.728 5.835-.377 2.275.256 4.619 0 6.895-.257 2.121-1.831 4.414-3.867 4.414-.154 0-.325-.017-.48-.034.822 2.019.395 5.714-1.402 7.613 1.044.958 1.71 2.31 1.71 3.816v.085c0 2.858-2.343 5.202-5.2 5.202h-1.574c-2.858 0-5.202-2.344-5.202-5.202v-.085c0-.702.137-1.352.394-1.968a4.333 4.333 0 0 1-.719-1.043c-.188-.36-.445-1.66-.77-3.593-.462-.052-.906-.206-1.334-.394a6.095 6.095 0 0 1-.924 1.968c.513.804.821 1.745.821 2.771v.086c0 2.857-2.344 5.201-5.201 5.201h-1.574c-2.857 0-5.201-2.344-5.201-5.201v-.086c0-.599.12-1.18.308-1.711-.822-.359-1.506-1.043-1.814-1.899-.548-1.488.12-3.353 1.471-4.123-1.283-.017-2.121-1.489-2.258-2.806-.154-1.317.103-2.703-.308-3.969-.547-1.728-2.173-2.823-3.217-4.295-1.043-1.471-1.214-4.038.428-4.688-1.745-.393-3.148-2.036-3.32-3.867-.153-1.83.942-3.712 2.602-4.414-1.917-.77-3.388-2.635-3.696-4.722-.325-2.087.513-4.329 2.122-5.663-.052.034-.103.068-.154.068-.839 0-2.327-4.26-2.379-4.722-.102-1.266.206-2.549.804-3.678-1.095-1.421-1.728-3.2-1.71-4.979a3.467 3.467 0 0 1-1.42.291c-1.626 0-3.268-1.027-4.073-2.498-1.026-1.9-.838-4.278-.017-6.28a22.525 22.525 0 0 1 1.78-3.49 36.858 36.858 0 0 1-.343-1.899c-1.762-1.146-2.977-3.302-3.13-5.458-.206-2.806.94-5.509 2.497-7.887.018-.496.052-1.01.086-1.506-2.652-3.542-2.053-9.188 1.386-12.028.017-.137.051-.29.068-.427-1.642-2.122-2.275-4.98-1.642-7.58.581-2.43 2.121-4.312 3.918-5.287.102-.582.205-1.146.308-1.71a4.956 4.956 0 0 1-2.088-3.063c-.444-2.19.428-4.432 1.506-6.4-2.019-.58-3.644-2.36-4.038-4.413-.393-2.054.445-4.312 2.105-5.595a.245.245 0 0 1-.171.068c-.976 0-2.515-5.44-2.515-6.056.05-2.276 1.231-4.671 3.199-5.92.394-.24.753-.445 1.095-.582-.12-1.591-.222-3.148-.29-4.67a2.444 2.444 0 0 1-.497.05 2.66 2.66 0 0 1-1.625-.547c-.924-.736-1.284-2.053-1.044-3.217.24-1.163 1.026-2.155 2.019-2.823-1.591-.838-2.6-2.652-2.498-4.448.12-1.797 1.351-3.473 3.028-4.09-1.386-1.42-1.728-3.763-.804-5.526.462-.855 2.361-2.669 3.73-2.669.085 0 .171 0 .24.018.12-.308.239-.6.359-.89a.13.13 0 0 1-.035-.069 4.254 4.254 0 0 1-.94-.975C8.98 19.203 8.416 11.88 9.579 6.011c.24-1.215.685-1.95 1.37-1.95.444 0 .991.307 1.642.975 1.625 1.66 4.089 5.372 7.066 8.623.034 0 .068 0 .102.017.086.017.171.068.24.102.034-.017.068-.05.12-.068-.325-1.352.273-2.892 2.395-4.568.958-.753 2.156-1.13 3.37-1.13 1.472 0 2.96.548 3.987 1.609.702-.821 1.797-1.3 2.874-1.3.24 0 .462.017.702.068 1.266.257 2.378 1.215 2.806 2.447.034 0 .068 0 .102.017.582-.582 1.386-.856 2.208-.856.872 0 1.779.325 2.412.924.393.377.684.838.907 1.335.924.376 1.78.855 2.6 1.368 2.943-3.233 5.373-6.912 6.998-8.554.787-.685 1.335-.993 1.78-.993Zm0-3.319c-1.403 0-2.704.633-4.004 1.95-.907.925-1.9 2.208-3.063 3.713-.667.873-1.403 1.814-2.155 2.755a6.307 6.307 0 0 0-.65-.701C42.155 7.328 40.444 6.66 38.7 6.66c-.411 0-.805.034-1.181.103a7.116 7.116 0 0 0-3.285-1.643 6.946 6.946 0 0 0-4.226.48 9.262 9.262 0 0 0-3.987-.908c-2.001 0-3.935.65-5.44 1.848-.53.428-.993.839-1.386 1.25-.36-.463-.719-.925-1.061-1.37-1.146-1.505-2.156-2.788-3.063-3.712-1.3-1.318-2.6-1.95-4.003-1.95-.873 0-3.781.324-4.62 4.619-1.06 5.39-.924 12.558 1.147 17.126-1.232.924-2.173 2.07-2.584 2.875-1.01 1.899-1.163 4.123-.564 6.125a8.097 8.097 0 0 0-2.054 4.842 7.988 7.988 0 0 0 1.284 4.825 7.383 7.383 0 0 0-.736 1.967c-.513 2.447.342 4.996 2.224 6.485.325.256.667.479 1.027.65v.12c-2.464 1.847-4.072 5.013-4.158 8.23-.017.837.684 3.78 1.711 6.039a9.16 9.16 0 0 0-1.078 6.262 9.095 9.095 0 0 0 3.028 5.167c-.701 2.019-.855 3.884-.496 5.663a8.073 8.073 0 0 0 1.198 2.857c-1.591 1.506-2.755 3.508-3.285 5.766-.65 2.72-.325 5.63.873 8.144-2.823 3.781-3.251 9.188-.941 13.38-1.814 3.079-2.618 6.091-2.396 8.931.188 2.566 1.352 5.03 3.148 6.775a26.77 26.77 0 0 0-1.197 2.532c-1.335 3.183-1.266 6.519.154 9.137 1.146 2.121 3.319 3.661 5.629 4.089.205.633.462 1.232.77 1.831a9.993 9.993 0 0 0-.411 3.61c0 .051.428 2.412 1.54 4.516-.993 1.814-1.403 3.97-1.095 6.04a9.517 9.517 0 0 0 2.019 4.517 7.766 7.766 0 0 0-.941 4.397c.154 1.762.958 3.422 2.155 4.671-.29 1.848.189 3.935 1.335 5.526.496.702 1.044 1.283 1.523 1.797.53.564 1.095 1.163 1.214 1.574.086.291.086.872.086 1.437 0 .565 0 1.198.068 1.882a7.232 7.232 0 0 0 1.027 3.046c-.547 1.471-.599 3.131-.051 4.636a6.79 6.79 0 0 0 1.3 2.156V195.412c0 4.688 3.815 8.503 8.503 8.503h1.592c2.104 0 4.037-.77 5.526-2.036 1.471 2.566 4.226 4.294 7.391 4.294h1.574c4.688 0 8.504-3.815 8.504-8.503v-.086a8.361 8.361 0 0 0-.993-3.952 12.197 12.197 0 0 0 1.095-5.047c2.19-1.335 3.645-3.901 3.935-6.416.171-1.386.069-2.721-.017-3.884-.068-1.061-.137-2.053 0-2.874.103-.668.394-1.438.702-2.259.393-1.061.838-2.258 1.043-3.627.137-.855.035-2.566-.12-4.346 2.19.924 4.432 1.42 6.485 1.42.667 0 1.317-.051 1.933-.154a9.6 9.6 0 0 0 4.706 1.232 9.083 9.083 0 0 0 3.575-.718c.052-.017.12-.052.171-.069.24 2.361 1.318 4.62 2.943 6.296-.547 1.352-.752 2.841-.547 4.278a8.566 8.566 0 0 0 1.848 4.243c-.582 1.591-.702 3.37-.257 5.03a8.12 8.12 0 0 0 2.156 3.661c-.325 1.352-.24 2.789.376 4.09a5.965 5.965 0 0 0 3.918 3.25 8.399 8.399 0 0 0 1.934 4.158 8.429 8.429 0 0 0 5.8 2.96l1.574.12c.222.017.445.034.667.034 3.37 0 6.348-2.019 7.716-4.928a8.526 8.526 0 0 0 8.161 6.074h1.575c4.688 0 8.503-3.815 8.503-8.503v-.086a7.79 7.79 0 0 0-.171-1.659c.428-1.403.599-2.943.513-4.415 2.002-1.351 3.456-3.49 3.952-6.005.599-3.08-.154-6.04-.752-8.418l-.103-.427 1.813-5.647 1.061-3.353c.89-2.806 2.053-6.416 1.694-10.163 2.31-1.437 4.089-3.747 4.876-6.502.787-2.72.531-5.475-.65-7.767 1.078-2.19 1.454-4.722 1.129-7.186 4.226-.53 7.289-2.96 8.521-6.861.205-.633.513-1.899.41-3.302.36-.274.719-.565 1.027-.907 1.471-1.523 2.276-3.559 2.207-5.578-.103-2.754-1.796-5.201-4.157-6.484.051-2.395-.941-4.808-2.875-6.382-1.351-1.112-3.114-1.711-4.962-1.711-.205 0-.41 0-.616.017a6.252 6.252 0 0 0-.821-1.3c-1.488-1.865-3.952-2.943-7.015-3.062a27.46 27.46 0 0 0-2.771-3.217c.034-1.643-.377-3.217-1.198-4.568-1.386-2.293-4.004-3.713-6.81-3.713-.29 0-.598.017-.889.051-1.249-2.087-3.354-3.678-5.8-4.157a8.054 8.054 0 0 0-1.574-.154c-1.643 0-3.268.496-4.671 1.351-1.711-1.608-3.987-2.549-6.365-2.549h-.36c-1.933.086-3.815.821-5.354 2.053-4.449-.393-9.342-.616-14.595-.633h-.445c-2.874 0-5.765.137-8.674.394.017-.052.017-.103.034-.154.342-2.002-.273-4.09-1.66-5.749a7.836 7.836 0 0 0-.632-.667c.735-1.711.992-3.627.65-5.475-.308-1.677-1.095-3.217-2.19-4.466 1.043-1.471 1.642-3.268 1.54-5.133-.12-2.412-1.352-4.585-3.183-6.022a8.67 8.67 0 0 0 .394-2.584c.017-2.31-.839-4.67-2.224-6.399 0-.308-.018-.633-.018-.94 1.54-.839 2.738-2.19 3.32-3.833.735-2.087.376-4.517-.959-6.467a5.96 5.96 0 0 0-.633-.805c.668-1.608.788-3.456.172-5.167-.616-1.71-1.917-3.114-3.542-3.935a7.007 7.007 0 0 0-1.232-4.072c0-.017-.017-.017-.017-.034 2.532-4.466 2.772-12.302 1.625-18.085C57.023 1.1 54.115.758 53.26.758Z" fill="#A89B93"/><path d="M24.071 17.543c5.372 3.73-8.88 10.385-12.764 4.807-2.19-3.13-2.754-10.454-1.59-16.322.393-2.002 1.334-2.686 3.01-.992 2.362 2.412 6.434 9.102 11.344 12.507Z" fill="url(#b)"/><path d="M40.274 17.543c-5.373 3.73 8.88 10.385 12.763 4.807 2.19-3.13 2.755-10.454 1.591-16.322-.393-2.002-1.334-2.686-3.01-.992-2.379 2.412-6.451 9.102-11.344 12.507Z" fill="url(#c)"/><path d="M20.392 16.738c3.371 2.344-5.56 6.502-8.007 3.012-1.368-1.968-1.728-6.553-.992-10.232.24-1.249.838-1.694 1.882-.616 1.489 1.506 4.038 5.698 7.117 7.836ZM44.38 16.738c-3.37 2.344 5.56 6.502 8.007 3.012 1.369-1.968 1.728-6.553.992-10.232-.24-1.249-.838-1.694-1.882-.616-1.488 1.506-4.037 5.698-7.117 7.836Z" fill="#736357"/><path d="M143.084 119.566c-.086-2.43-2.55-4.517-4.962-4.209 1.335-1.882.941-4.774-.855-6.228-1.78-1.454-4.688-1.249-6.262.445 1.06-4.688-2.841-6.057-6.776-5.732-1.163-1.899-2.652-3.661-4.534-5.287.342-1.403.223-2.891-.53-4.123-1.42-2.327-5.201-2.926-6.929-.821.068-2.532-1.882-4.979-4.38-5.458-2.19-.428-4.569.701-5.715 2.6l-.719-.153c-.958-2.225-3.336-3.833-5.782-3.73-1.66.068-3.234.924-4.312 2.19-4.654-.48-9.906-.736-15.81-.77a91.05 91.05 0 0 0-11.582.684A4.82 4.82 0 0 1 60.41 88c1.403-.616 2.532-1.814 2.79-3.32.41-2.446-2.14-5.047-4.5-4.31 2.138-1.301 3.319-3.97 2.874-6.417-.462-2.447-2.533-4.517-4.996-4.962 2.412-.29 4.397-2.652 4.277-5.081-.12-2.43-2.327-4.585-4.773-4.637 3.336-2.686 1.916-7.425-.206-9.188a379.109 379.109 0 0 0-.137-4.67c1.557-.12 3.063-1.078 3.593-2.55.822-2.344-1.129-5.218-3.627-5.32 1.848-.736 2.892-3.046 2.224-4.911-.547-1.54-2.207-2.566-3.832-2.532-.069-.342-.137-.685-.222-1.027.496-1.18.41-2.618-.326-3.678a3.203 3.203 0 0 0-.992-.924 27.334 27.334 0 0 0-.855-2.173c.188-.257.342-.53.427-.838.514-1.677-.718-3.764-2.48-3.833-.086-2.07-2.516-4.294-4.62-3.764-.924-.633-1.933-1.164-3.011-1.625a3.703 3.703 0 0 0-.907-1.335c-1.25-1.163-3.422-1.266-4.637-.068-.034 0-.068 0-.102-.018a3.804 3.804 0 0 0-2.806-2.446c-1.3-.257-2.72.24-3.576 1.232-1.865-1.934-5.253-2.156-7.357-.48-2.122 1.677-2.738 3.217-2.396 4.569-.034.017-.068.051-.12.068-.085-.034-.153-.068-.239-.102-1.471-.428-3.319.547-3.456 2.07-3.062-2.943-6.741 4.414-4.157 7.63-.12.291-.24.582-.36.89-1.386-.24-3.49 1.745-3.97 2.652-.923 1.763-.598 4.107.805 5.527-1.677.633-2.926 2.31-3.028 4.089-.12 1.796.906 3.61 2.498 4.448-.976.667-1.763 1.677-2.02 2.823-.239 1.164.12 2.481 1.044 3.217.582.462 1.403.65 2.122.496.068 1.523.171 3.08.29 4.67a8.615 8.615 0 0 0-1.094.583c-1.968 1.249-3.131 3.644-3.2 5.92-.017.633 1.711 6.74 2.686 5.988-1.66 1.283-2.497 3.541-2.104 5.594.394 2.054 2.019 3.833 4.038 4.415-1.078 1.95-1.95 4.209-1.506 6.399.24 1.232 1.044 2.378 2.088 3.062-.103.565-.206 1.13-.308 1.711-1.78.975-3.32 2.857-3.918 5.287-.633 2.6 0 5.475 1.642 7.58-.017.136-.051.29-.068.427-3.422 2.84-4.021 8.486-1.386 12.028-.034.496-.052 1.009-.086 1.506-1.557 2.378-2.703 5.081-2.498 7.887.154 2.156 1.369 4.312 3.131 5.458.103.633.223 1.266.342 1.899-.77 1.198-1.368 2.481-1.779 3.49-.838 2.002-1.026 4.38.017 6.28 1.027 1.899 3.508 3.079 5.492 2.207-.017 2.566 1.266 5.098 3.354 6.604 1.249.89 2.754 1.386 4.294 1.471a39.513 39.513 0 0 0 4.568 3.388 4.948 4.948 0 0 0 1.917 1.129 45.855 45.855 0 0 0 3.045 1.574c.513.24.992.582 1.386.958-.804 1.386-1.163 3.217-1.18 4.415-.018 2.361 1.026 4.722 2.805 6.296-1.882 1.026-3.028 3.285-2.754 5.423.29 2.139 1.967 4.004 4.055 4.517-1.318.924-2.02 2.652-1.711 4.226.308 1.574 1.608 2.926 3.165 3.285-2.327 1.369-2.686 5.15-.633 6.93.616.53 1.369.821 2.139.906.308 1.917.581 3.234.77 3.593 1.66 3.251 5.8 2.755 7.75.343.171.017.36.017.565 0 3.661-.411 4.756-6.091 3.661-8.777 2.276.393 4.09-2.071 4.363-4.363.274-2.293-.376-4.62 0-6.895.325-2.002 1.42-3.816 1.728-5.835.205-1.334-.565-7.836-.753-8.811.667.068 1.335.12 2.036.171 3.473 2.361 7.836 3.593 10.967 2.481 1.694 1.505 4.26 1.933 6.33 1.044 1.455-.616 2.618-1.865 3.217-3.32l1.147-.051c1.095 1.968 3.182 3.405 5.458 3.559 2.686.188 5.389-1.472 6.535-3.884h.89c1.882 1.882 5.099 2.156 7.528.924.291.205.565.428.804.684-.479.941-.633 2.242-.17 3.816.444 1.505 1.573 2.788 1.847 4.328.411 2.276-1.095 4.449-1.42 6.741-.445 3.063 1.488 6.297 4.397 7.357-1.608 2.652-1.557 6.211.137 8.812.701 1.06 1.814 2.019 3.045 2.053.805 1.711 2.55 2.857 4.5 2.823.394 0 .787-.069 1.164-.171.136.068.29.137.462.205 4.927 1.728 6.108-5.201 4.824-8.23 2.327-.513 4.021-2.378 4.483-4.722.445-2.309-.137-4.671-.719-6.963-.119-.445-.222-.907-.342-1.352 1.061-3.302 2.105-6.604 3.166-9.906 1.163-3.61 2.309-7.494 1.077-11.087 5.339-1.369 7.665-8.401 4.055-12.25 2.464-3.046 2.43-7.477.411-10.711-.137-.222 7.956 2.122 10.043-4.431.496-1.574.462-3.662-1.129-4.106 2.464.171 4.756-2.088 4.671-4.517Z" fill="url(#d)"/><path d="M49.496 38.502c0-7.529-10.728-4.825-17.366-4.825-6.639 0-17.367-2.704-17.367 4.825 0 4.414 2.96 23.268 17.367 23.268 14.406 0 17.366-18.854 17.366-23.269Z" fill="#F6ECE3"/><path d="M34.183 58.229h-4.14c-4.175 0-7.597-3.422-7.597-7.597 0-4.175 3.422-7.596 7.596-7.596h4.14c4.175 0 7.597 3.421 7.597 7.596 0 4.175-3.422 7.597-7.596 7.597Z" fill="#fff"/><path d="M22.138 44.182a3.422 3.422 0 1 0 0-6.844 3.422 3.422 0 0 0 0 6.844ZM42.087 44.182a3.422 3.422 0 1 0 0-6.844 3.422 3.422 0 0 0 0 6.844Z" fill="#1E0E00"/><path d="M27.1 46.064s5.2 6.587 10.402 0" stroke="#595959" stroke-width=".969" stroke-miterlimit="10" stroke-linecap="round" stroke-linejoin="round"/><path d="M32.267 51.813a3.571 3.571 0 0 1-5.87 2.788" stroke="#404040" stroke-width=".726" stroke-miterlimit="10" stroke-linecap="round" stroke-linejoin="round"/><path d="M32.25 49.537c0 4.74 1.659 5.817 3.627 5.783a3.505 3.505 0 0 0 2.326-.924" stroke="#404040" stroke-width=".726" stroke-miterlimit="10" stroke-linecap="round" stroke-linejoin="round"/></g><defs><linearGradient id="b" x1="19.51" y1="23.004" x2="9.969" y2="5.31" gradientUnits="userSpaceOnUse"><stop stop-color="#AA9D94"/><stop offset=".437" stop-color="#AEA197"/><stop offset=".866" stop-color="#BAABA0"/><stop offset=".999" stop-color="#BFB0A4"/></linearGradient><linearGradient id="c" x1="45.817" y1="21.189" x2="54.144" y2="5.23" gradientUnits="userSpaceOnUse"><stop stop-color="#AA9D94"/><stop offset=".437" stop-color="#AEA197"/><stop offset=".866" stop-color="#BAABA0"/><stop offset=".999" stop-color="#BFB0A4"/></linearGradient><linearGradient id="d" x1="73.5" y1="8.018" x2="73.5" y2="198.132" gradientUnits="userSpaceOnUse"><stop offset="0" stop-color="#E3D3C8"/><stop offset=".251" stop-color="#DCCCC2"/><stop offset=".617" stop-color="#C8B9B0"/><stop offset=".997" stop-color="#AD9F97"/></linearGradient><clipPath id="a"><path fill="#fff" d="M0 0h64v64H0z"/></clipPath></defs></svg>